<svg width="203" height="48" viewBox="0 0 203 48" fill="none" xmlns="http://www.w3.org/2000/svg">
<rect width="161" height="48" fill="#44B0FF"/>
<rect width="161" height="48" fill="#7A5B5B" fill-opacity="0.2"/>
<path d="M106 48L58 0H161V48H106Z" fill="white"/>
<path d="M115 48L67 0H170V48H115Z" fill="#4E9FDE"/>
<path d="M120 48L72 0H175V48H120Z" fill="white"/>
<path d="M129 48L81 0H184V48H129Z" fill="#4E9FDE"/>
<path d="M134 48L86 0H189V48H134Z" fill="white"/>
<path d="M134 48L86 0H189V48H134Z" fill="white"/>
<path d="M143 48L95 0H198V48H143Z" fill="#4E9FDE"/>
<path d="M148 48L100 0H203V48H148Z" fill="white"/>
<path d="M12 31L12 17C12 16.4696 12.2107 15.9609 12.5858 15.5858C12.9609 15.2107 13.4696 15 14 15L28 15C28.5304 15 29.0391 15.2107 29.4142 15.5858C29.7893 15.9609 30 16.4696 30 17L30 31C30 31.5304 29.7893 32.0391 29.4142 32.4142C29.0391 32.7893 28.5304 33 28 33H14C13.4696 33 12.9609 32.7893 12.5858 32.4142C12.2107 32.0391 12 31.5304 12 31ZM26 24L21 19V22H17V26H21V29L26 24Z" fill="#050C49"/>
</svg>
