<svg width="496" height="325" viewBox="0 0 496 325" fill="none" xmlns="http://www.w3.org/2000/svg">
<rect x="195" y="133" width="49" height="46" fill="#5854F1"/>
<path d="M454 315H480.143" stroke="#4E9FDE" stroke-width="7" stroke-linecap="round"/>
<path d="M354 315H492" stroke="#4E9FDE" stroke-width="7" stroke-linecap="square"/>
<path d="M397 256L492 257" stroke="#4E9FDE" stroke-width="7" stroke-linecap="square"/>
<path d="M354 241L354 315" stroke="#4E9FDE" stroke-width="7" stroke-linecap="round"/>
<path d="M73 75L73 133" stroke="#4E9FDE" stroke-width="7" stroke-linecap="round"/>
<path d="M397 75L397 256" stroke="#4E9FDE" stroke-width="7" stroke-linecap="round"/>
<path d="M288 241L354 241" stroke="#4E9FDE" stroke-width="7" stroke-linecap="round"/>
<path d="M73 75L397 75" stroke="#4E9FDE" stroke-width="7" stroke-linecap="round"/>
<g filter="url(#filter0_d_9_838)">
<rect x="4" y="142.938" width="284" height="16.8568" fill="#555555"/>
<rect x="22.249" y="1.52588e-05" width="13.4368" height="142.938" fill="#555555"/>
<rect x="256.049" width="13.4368" height="142.938" fill="#555555"/>
<rect x="269.486" width="13.4004" height="247.237" transform="rotate(90 269.486 0)" fill="#555555"/>
</g>
<g filter="url(#filter1_d_9_838)">
<rect x="48" y="133" width="45" height="56" fill="#5854F1"/>
</g>
<rect x="4" y="169" width="284" height="153" rx="10" fill="#5854F1"/>
<rect x="12" y="195" width="122" height="124" rx="10" fill="#050C49"/>
<g filter="url(#filter2_d_9_838)">
<rect x="300.845" y="230.37" width="38.3091" height="22.1304" rx="4.5" fill="#4E9FDE" stroke="white"/>
<rect x="300.845" y="196.5" width="38.3091" height="4.78261" rx="2.3913" fill="#4E9FDE" stroke="white"/>
<rect x="316.736" y="203.109" width="6.52727" height="22.1304" rx="3.26364" fill="#4E9FDE" stroke="white"/>
<rect x="297.5" y="233.674" width="3.18182" height="15.5217" rx="1.59091" fill="#4E9FDE" stroke="white"/>
<rect x="339.318" y="233.674" width="3.18182" height="15.5217" rx="1.59091" fill="#4E9FDE" stroke="white"/>
<path d="M309.527 225.413H330.473C332.958 225.413 334.973 227.428 334.973 229.913V230.196H305.027V229.913C305.027 227.428 307.042 225.413 309.527 225.413Z" fill="#4E9FDE" stroke="white"/>
<path d="M329.118 223.792V225.239H310.882V223.792C310.882 218.756 314.964 214.674 320 214.674C325.036 214.674 329.118 218.756 329.118 223.792Z" fill="#4E9FDE" stroke="white"/>
<path d="M315.064 202.129L315.064 201.457L324.936 201.457L324.936 202.129C324.936 204.855 322.726 207.065 320 207.065C317.274 207.065 315.064 204.855 315.064 202.129Z" fill="#4E9FDE" stroke="white"/>
</g>
<g filter="url(#filter3_d_9_838)">
<rect x="200.845" y="63.3696" width="38.3091" height="22.1304" rx="4.5" fill="#4E9FDE" stroke="white"/>
<rect x="200.845" y="29.5" width="38.3091" height="4.78261" rx="2.3913" fill="#4E9FDE" stroke="white"/>
<rect x="216.736" y="36.1087" width="6.52727" height="22.1304" rx="3.26364" fill="#4E9FDE" stroke="white"/>
<rect x="197.5" y="66.6739" width="3.18182" height="15.5217" rx="1.59091" fill="#4E9FDE" stroke="white"/>
<rect x="239.318" y="66.6739" width="3.18182" height="15.5217" rx="1.59091" fill="#4E9FDE" stroke="white"/>
<path d="M209.527 58.413H230.473C232.958 58.413 234.973 60.4278 234.973 62.913V63.1956H205.027V62.913C205.027 60.4278 207.042 58.413 209.527 58.413Z" fill="#4E9FDE" stroke="white"/>
<path d="M229.118 56.7921V58.2391H210.882V56.7921C210.882 51.7563 214.964 47.6739 220 47.6739C225.036 47.6739 229.118 51.7563 229.118 56.7921Z" fill="#4E9FDE" stroke="white"/>
<path d="M215.064 35.1288L215.064 34.4565L224.936 34.4565L224.936 35.1288C224.936 37.8551 222.726 40.0652 220 40.0652C217.274 40.0652 215.064 37.8551 215.064 35.1288Z" fill="#4E9FDE" stroke="white"/>
</g>
<g filter="url(#filter4_d_9_838)">
<rect x="91.8455" y="63.3696" width="38.3091" height="22.1304" rx="4.5" fill="#4E9FDE" stroke="white"/>
<rect x="91.8455" y="29.5" width="38.3091" height="4.78261" rx="2.3913" fill="#4E9FDE" stroke="white"/>
<rect x="107.736" y="36.1087" width="6.52727" height="22.1304" rx="3.26364" fill="#4E9FDE" stroke="white"/>
<rect x="88.5" y="66.6739" width="3.18182" height="15.5217" rx="1.59091" fill="#4E9FDE" stroke="white"/>
<rect x="130.318" y="66.6739" width="3.18182" height="15.5217" rx="1.59091" fill="#4E9FDE" stroke="white"/>
<path d="M100.527 58.413H121.473C123.958 58.413 125.973 60.4278 125.973 62.913V63.1956H96.0273V62.913C96.0273 60.4278 98.042 58.413 100.527 58.413Z" fill="#4E9FDE" stroke="white"/>
<path d="M120.118 56.7921V58.2391H101.882V56.7921C101.882 51.7563 105.964 47.6739 111 47.6739C116.036 47.6739 120.118 51.7563 120.118 56.7921Z" fill="#4E9FDE" stroke="white"/>
<path d="M106.064 35.1288L106.064 34.4565L115.936 34.4565L115.936 35.1288C115.936 37.8551 113.726 40.0652 111 40.0652C108.274 40.0652 106.064 37.8551 106.064 35.1288Z" fill="#4E9FDE" stroke="white"/>
</g>
<g filter="url(#filter5_d_9_838)">
<path d="M73 198L73 238" stroke="#BEBEBE" stroke-width="7" stroke-linecap="square"/>
<rect x="50.5" y="217.5" width="34" height="44" fill="#D9D9D9" stroke="black"/>
<circle cx="74.5" cy="263.5" r="24" fill="#D9D9D9" stroke="black"/>
<circle cx="74.5" cy="263.5" r="19" fill="#D9D9D9" stroke="black"/>
</g>
<rect x="103" y="68" width="16" height="15" fill="white"/>
<path d="M102 82V68C102 67.4696 102.211 66.9609 102.586 66.5858C102.961 66.2107 103.47 66 104 66H118C118.53 66 119.039 66.2107 119.414 66.5858C119.789 66.9609 120 67.4696 120 68V82C120 82.5304 119.789 83.0391 119.414 83.4142C119.039 83.7893 118.53 84 118 84H104C103.47 84 102.961 83.7893 102.586 83.4142C102.211 83.0391 102 82.5304 102 82ZM116 75L111 70V73H107V77H111V80L116 75Z" fill="#050C49"/>
<rect x="335" y="68" width="16" height="15" fill="white"/>
<path d="M334 82V68C334 67.4696 334.211 66.9609 334.586 66.5858C334.961 66.2107 335.47 66 336 66H350C350.53 66 351.039 66.2107 351.414 66.5858C351.789 66.9609 352 67.4696 352 68V82C352 82.5304 351.789 83.0391 351.414 83.4142C351.039 83.7893 350.53 84 350 84H336C335.47 84 334.961 83.7893 334.586 83.4142C334.211 83.0391 334 82.5304 334 82ZM348 75L343 70V73H339V77H343V80L348 75Z" fill="#050C49"/>
<rect x="404" y="162" width="16" height="15" transform="rotate(90 404 162)" fill="white"/>
<path d="M390 161L404 161C404.53 161 405.039 161.211 405.414 161.586C405.789 161.961 406 162.47 406 163L406 177C406 177.53 405.789 178.039 405.414 178.414C405.039 178.789 404.53 179 404 179L390 179C389.47 179 388.961 178.789 388.586 178.414C388.211 178.039 388 177.53 388 177L388 163C388 162.47 388.211 161.961 388.586 161.586C388.961 161.211 389.47 161 390 161ZM397 175L402 170L399 170L399 166L395 166L395 170L392 170L397 175Z" fill="#050C49"/>
<rect x="427" y="249" width="16" height="15" fill="white"/>
<path d="M426 263V249C426 248.47 426.211 247.961 426.586 247.586C426.961 247.211 427.47 247 428 247H442C442.53 247 443.039 247.211 443.414 247.586C443.789 247.961 444 248.47 444 249V263C444 263.53 443.789 264.039 443.414 264.414C443.039 264.789 442.53 265 442 265H428C427.47 265 426.961 264.789 426.586 264.414C426.211 264.039 426 263.53 426 263ZM440 256L435 251V254H431V258H435V261L440 256Z" fill="#050C49"/>
<rect x="443" y="323" width="16" height="15" transform="rotate(-180 443 323)" fill="white"/>
<path d="M444 309L444 323C444 323.53 443.789 324.039 443.414 324.414C443.039 324.789 442.53 325 442 325L428 325C427.47 325 426.961 324.789 426.586 324.414C426.211 324.039 426 323.53 426 323L426 309C426 308.47 426.211 307.961 426.586 307.586C426.961 307.211 427.47 307 428 307L442 307C442.53 307 443.039 307.211 443.414 307.586C443.789 307.961 444 308.47 444 309ZM430 316L435 321L435 318L439 318L439 314L435 314L435 311L430 316Z" fill="#050C49"/>
<rect x="347" y="286" width="16" height="15" transform="rotate(-90 347 286)" fill="white"/>
<path d="M361 287L347 287C346.47 287 345.961 286.789 345.586 286.414C345.211 286.039 345 285.53 345 285L345 271C345 270.47 345.211 269.961 345.586 269.586C345.961 269.211 346.47 269 347 269L361 269C361.53 269 362.039 269.211 362.414 269.586C362.789 269.961 363 270.47 363 271L363 285C363 285.53 362.789 286.039 362.414 286.414C362.039 286.789 361.53 287 361 287ZM354 273L349 278L352 278L352 282L356 282L356 278L359 278L354 273Z" fill="#050C49"/>
<defs>
<filter id="filter0_d_9_838" x="0" y="-1.52588e-05" width="292" height="167.795" filterUnits="userSpaceOnUse" color-interpolation-filters="sRGB">
<feFlood flood-opacity="0" result="BackgroundImageFix"/>
<feColorMatrix in="SourceAlpha" type="matrix" values="0 0 0 0 0 0 0 0 0 0 0 0 0 0 0 0 0 0 127 0" result="hardAlpha"/>
<feOffset dy="4"/>
<feGaussianBlur stdDeviation="2"/>
<feComposite in2="hardAlpha" operator="out"/>
<feColorMatrix type="matrix" values="0 0 0 0 0 0 0 0 0 0 0 0 0 0 0 0 0 0 0.25 0"/>
<feBlend mode="normal" in2="BackgroundImageFix" result="effect1_dropShadow_9_838"/>
<feBlend mode="normal" in="SourceGraphic" in2="effect1_dropShadow_9_838" result="shape"/>
</filter>
<filter id="filter1_d_9_838" x="44" y="133" width="53" height="64" filterUnits="userSpaceOnUse" color-interpolation-filters="sRGB">
<feFlood flood-opacity="0" result="BackgroundImageFix"/>
<feColorMatrix in="SourceAlpha" type="matrix" values="0 0 0 0 0 0 0 0 0 0 0 0 0 0 0 0 0 0 127 0" result="hardAlpha"/>
<feOffset dy="4"/>
<feGaussianBlur stdDeviation="2"/>
<feComposite in2="hardAlpha" operator="out"/>
<feColorMatrix type="matrix" values="0 0 0 0 0 0 0 0 0 0 0 0 0 0 0 0 0 0 0.25 0"/>
<feBlend mode="normal" in2="BackgroundImageFix" result="effect1_dropShadow_9_838"/>
<feBlend mode="normal" in="SourceGraphic" in2="effect1_dropShadow_9_838" result="shape"/>
</filter>
<filter id="filter2_d_9_838" x="293" y="196" width="54" height="65" filterUnits="userSpaceOnUse" color-interpolation-filters="sRGB">
<feFlood flood-opacity="0" result="BackgroundImageFix"/>
<feColorMatrix in="SourceAlpha" type="matrix" values="0 0 0 0 0 0 0 0 0 0 0 0 0 0 0 0 0 0 127 0" result="hardAlpha"/>
<feOffset dy="4"/>
<feGaussianBlur stdDeviation="2"/>
<feComposite in2="hardAlpha" operator="out"/>
<feColorMatrix type="matrix" values="0 0 0 0 0 0 0 0 0 0 0 0 0 0 0 0 0 0 0.25 0"/>
<feBlend mode="normal" in2="BackgroundImageFix" result="effect1_dropShadow_9_838"/>
<feBlend mode="normal" in="SourceGraphic" in2="effect1_dropShadow_9_838" result="shape"/>
</filter>
<filter id="filter3_d_9_838" x="193" y="29" width="54" height="65" filterUnits="userSpaceOnUse" color-interpolation-filters="sRGB">
<feFlood flood-opacity="0" result="BackgroundImageFix"/>
<feColorMatrix in="SourceAlpha" type="matrix" values="0 0 0 0 0 0 0 0 0 0 0 0 0 0 0 0 0 0 127 0" result="hardAlpha"/>
<feOffset dy="4"/>
<feGaussianBlur stdDeviation="2"/>
<feComposite in2="hardAlpha" operator="out"/>
<feColorMatrix type="matrix" values="0 0 0 0 0 0 0 0 0 0 0 0 0 0 0 0 0 0 0.25 0"/>
<feBlend mode="normal" in2="BackgroundImageFix" result="effect1_dropShadow_9_838"/>
<feBlend mode="normal" in="SourceGraphic" in2="effect1_dropShadow_9_838" result="shape"/>
</filter>
<filter id="filter4_d_9_838" x="84" y="29" width="54" height="65" filterUnits="userSpaceOnUse" color-interpolation-filters="sRGB">
<feFlood flood-opacity="0" result="BackgroundImageFix"/>
<feColorMatrix in="SourceAlpha" type="matrix" values="0 0 0 0 0 0 0 0 0 0 0 0 0 0 0 0 0 0 127 0" result="hardAlpha"/>
<feOffset dy="4"/>
<feGaussianBlur stdDeviation="2"/>
<feComposite in2="hardAlpha" operator="out"/>
<feColorMatrix type="matrix" values="0 0 0 0 0 0 0 0 0 0 0 0 0 0 0 0 0 0 0.25 0"/>
<feBlend mode="normal" in2="BackgroundImageFix" result="effect1_dropShadow_9_838"/>
<feBlend mode="normal" in="SourceGraphic" in2="effect1_dropShadow_9_838" result="shape"/>
</filter>
<filter id="filter5_d_9_838" x="46" y="194.5" width="57" height="101.5" filterUnits="userSpaceOnUse" color-interpolation-filters="sRGB">
<feFlood flood-opacity="0" result="BackgroundImageFix"/>
<feColorMatrix in="SourceAlpha" type="matrix" values="0 0 0 0 0 0 0 0 0 0 0 0 0 0 0 0 0 0 127 0" result="hardAlpha"/>
<feOffset dy="4"/>
<feGaussianBlur stdDeviation="2"/>
<feComposite in2="hardAlpha" operator="out"/>
<feColorMatrix type="matrix" values="0 0 0 0 0 0 0 0 0 0 0 0 0 0 0 0 0 0 0.25 0"/>
<feBlend mode="normal" in2="BackgroundImageFix" result="effect1_dropShadow_9_838"/>
<feBlend mode="normal" in="SourceGraphic" in2="effect1_dropShadow_9_838" result="shape"/>
</filter>
</defs>
</svg>
