<svg width="54" height="65" viewBox="0 0 54 65" fill="none" xmlns="http://www.w3.org/2000/svg">
<g filter="url(#filter0_d_1_208)">
<rect x="7.84546" y="34.3696" width="38.3091" height="22.1304" rx="4.5" fill="#4E9FDE" stroke="white"/>
<rect x="7.84546" y="0.5" width="38.3091" height="4.78261" rx="2.3913" fill="#4E9FDE" stroke="white"/>
<rect x="23.7364" y="7.1087" width="6.52727" height="22.1304" rx="3.26364" fill="#4E9FDE" stroke="white"/>
<rect x="4.5" y="37.6739" width="3.18182" height="15.5217" rx="1.59091" fill="#4E9FDE" stroke="white"/>
<rect x="46.3182" y="37.6739" width="3.18182" height="15.5217" rx="1.59091" fill="#4E9FDE" stroke="white"/>
<path d="M16.5273 29.4131H37.4727C39.958 29.4131 41.9727 31.4278 41.9727 33.9131V34.1957H12.0273V33.9131C12.0273 31.4278 14.042 29.4131 16.5273 29.4131Z" fill="#4E9FDE" stroke="white"/>
<path d="M36.1182 27.7921V29.2391H17.8818V27.7921C17.8818 22.7563 21.9642 18.6739 27 18.6739C32.0358 18.6739 36.1182 22.7563 36.1182 27.7921Z" fill="#4E9FDE" stroke="white"/>
<path d="M22.0636 6.12885L22.0636 5.45652L31.9364 5.45652L31.9364 6.12885C31.9364 8.85513 29.7263 11.0652 27 11.0652C24.2737 11.0652 22.0636 8.85513 22.0636 6.12885Z" fill="#4E9FDE" stroke="white"/>
</g>
<defs>
<filter id="filter0_d_1_208" x="0" y="0" width="54" height="65" filterUnits="userSpaceOnUse" color-interpolation-filters="sRGB">
<feFlood flood-opacity="0" result="BackgroundImageFix"/>
<feColorMatrix in="SourceAlpha" type="matrix" values="0 0 0 0 0 0 0 0 0 0 0 0 0 0 0 0 0 0 127 0" result="hardAlpha"/>
<feOffset dy="4"/>
<feGaussianBlur stdDeviation="2"/>
<feComposite in2="hardAlpha" operator="out"/>
<feColorMatrix type="matrix" values="0 0 0 0 0 0 0 0 0 0 0 0 0 0 0 0 0 0 0.25 0"/>
<feBlend mode="normal" in2="BackgroundImageFix" result="effect1_dropShadow_1_208"/>
<feBlend mode="normal" in="SourceGraphic" in2="effect1_dropShadow_1_208" result="shape"/>
</filter>
</defs>
</svg>
