<svg width="54" height="65" viewBox="0 0 54 65" fill="none" xmlns="http://www.w3.org/2000/svg">
<g filter="url(#filter0_d_23_114)">
<rect x="7.84545" y="34.3696" width="38.3091" height="22.1304" rx="4.5" fill="#4E9FDE" stroke="white"/>
<rect x="7.84545" y="0.5" width="38.3091" height="4.78261" rx="2.3913" fill="#4E9FDE" stroke="white"/>
<rect x="23.7364" y="7.1087" width="6.52727" height="22.1304" rx="3.26364" fill="#4E9FDE" stroke="white"/>
<rect x="4.5" y="37.6739" width="3.18182" height="15.5217" rx="1.59091" fill="#4E9FDE" stroke="white"/>
<rect x="46.3182" y="37.6739" width="3.18182" height="15.5217" rx="1.59091" fill="#4E9FDE" stroke="white"/>
<path d="M16.5273 29.4131H37.4727C39.958 29.4131 41.9727 31.4278 41.9727 33.9131V34.1957H12.0273V33.9131C12.0273 31.4278 14.042 29.4131 16.5273 29.4131Z" fill="#4E9FDE" stroke="white"/>
<path d="M36.1182 27.7921V29.2391H17.8818V27.7921C17.8818 22.7563 21.9642 18.6739 27 18.6739C32.0358 18.6739 36.1182 22.7563 36.1182 27.7921Z" fill="#4E9FDE" stroke="white"/>
<path d="M22.0636 6.12885L22.0636 5.45652L31.9364 5.45652L31.9364 6.12885C31.9364 8.85513 29.7263 11.0652 27 11.0652C24.2737 11.0652 22.0636 8.85513 22.0636 6.12885Z" fill="#4E9FDE" stroke="white"/>
</g>
<rect x="19" y="39" width="16" height="15" fill="white"/>
<path d="M18 53V39C18 38.4696 18.2107 37.9609 18.5858 37.5858C18.9609 37.2107 19.4696 37 20 37H34C34.5304 37 35.0391 37.2107 35.4142 37.5858C35.7893 37.9609 36 38.4696 36 39V53C36 53.5304 35.7893 54.0391 35.4142 54.4142C35.0391 54.7893 34.5304 55 34 55H20C19.4696 55 18.9609 54.7893 18.5858 54.4142C18.2107 54.0391 18 53.5304 18 53ZM32 46L27 41V44H23V48H27V51L32 46Z" fill="#050C49"/>
<defs>
<filter id="filter0_d_23_114" x="0" y="0" width="54" height="65" filterUnits="userSpaceOnUse" color-interpolation-filters="sRGB">
<feFlood flood-opacity="0" result="BackgroundImageFix"/>
<feColorMatrix in="SourceAlpha" type="matrix" values="0 0 0 0 0 0 0 0 0 0 0 0 0 0 0 0 0 0 127 0" result="hardAlpha"/>
<feOffset dy="4"/>
<feGaussianBlur stdDeviation="2"/>
<feComposite in2="hardAlpha" operator="out"/>
<feColorMatrix type="matrix" values="0 0 0 0 0 0 0 0 0 0 0 0 0 0 0 0 0 0 0.25 0"/>
<feBlend mode="normal" in2="BackgroundImageFix" result="effect1_dropShadow_23_114"/>
<feBlend mode="normal" in="SourceGraphic" in2="effect1_dropShadow_23_114" result="shape"/>
</filter>
</defs>
</svg>
