<svg width="101" height="99" viewBox="0 0 101 99" fill="none" xmlns="http://www.w3.org/2000/svg">
<path d="M67.5014 23.3351H60.288V14.4382H53.1091V9.00799C56.6392 8.93884 60.171 8.71747 63.7133 8.33857C67.6245 6.11535 67.624 4.55956 63.7133 2.33656C60.171 1.95744 56.6389 1.73651 53.1091 1.66736V0H48.3923V1.66736C44.8625 1.73651 41.3305 1.95744 37.7881 2.33656C33.8772 4.55956 33.8772 6.11535 37.7881 8.33857C41.3305 8.71747 44.8625 8.93906 48.3923 9.00799V14.4382H41.2134V23.3351H34V28.5011H67.5014V23.3351ZM45.717 18.9421H55.7842V23.3353H45.717V18.9421Z" fill="#06062B"/>
<path d="M93.4068 60.456H73.1378C70.1335 60.3873 67.7079 57.6939 67.7079 54.3866V45.7398C67.7079 42.3882 70.1962 39.6626 73.2551 39.6626V38.6872V35.7215V31H27.7449V35.7215V38.6872V39.6626C30.8038 39.6626 33.2921 42.3882 33.2921 45.7398V54.3866C33.2921 57.6939 30.8665 60.3873 27.8622 60.456H7.5932V55.244H0V99H7.5932V93.6789H93.4068V99H101V55.244H93.4068V60.456Z" fill="#06062B"/>
<path d="M34 87.3333L34 61.6667C34 60.6942 34.3863 59.7616 35.0739 59.0739C35.7616 58.3863 36.6942 58 37.6667 58L63.3333 58C64.3058 58 65.2384 58.3863 65.9261 59.0739C66.6137 59.7616 67 60.6942 67 61.6667V87.3333C67 88.3058 66.6137 89.2384 65.9261 89.9261C65.2384 90.6137 64.3058 91 63.3333 91H37.6667C36.6942 91 35.7616 90.6137 35.0739 89.9261C34.3863 89.2384 34 88.3058 34 87.3333ZM59.6667 74.5L50.5 65.3333V70.8333H43.1667V78.1667H50.5V83.6667L59.6667 74.5Z" fill="white"/>
</svg>
